<svg viewBox="0 0 225 81" width="225" height="81" xmlns="http://www.w3.org/2000/svg"><style>.pinname {font-size:12px; font-style:normal; font-variant:normal; font-weight:500; font-stretch:normal; text-align:center; text-anchor:end; font-family:Helvetica} .wirename {font-size:12px; font-style:normal; font-variant:normal; font-weight:500; font-stretch:normal; text-align:center; text-anchor:start; font-family:Helvetica} .wirename:hover {fill:blue} .gate {color:#000; fill:#ffc; fill-opacity: 1;stroke:#000; stroke-width:1; stroke-opacity:1} .gate:hover {fill:red !important; } .wire {fill:none; stroke:#000; stroke-width:1; stroke-opacity:1} .grid {fill:#fff; fill-opacity:1; stroke:none}</style><style>@media(prefers-color-scheme:dark){:root{filter:invert(1)}.gate{fill:#1c60a8}}</style><g transform="translate(0.5, 0.5)"><g><g><g><g transform="translate(16,0)"><path d="M160,40 160,40" class="wire"/></g><g><path d="m160,40 16,0" class="wire"/></g><g transform="translate(192,40)"><title><tspan>out</tspan></title><text x="-14" y="4" class="wirename"><tspan>out</tspan></text></g></g><g><g><g transform="translate(16,0)"><path d="M128,24 128,56" class="wire"/></g><g><path d="m128,24 16,0" class="wire"/></g><g><path d="m128,56 16,0" class="wire"/></g><g transform="translate(160,40)"><title><tspan>|</tspan></title><path class="gate" d="m -18,-10 4,0 c 6,0 12,5 14,10 -2,5 -8,10 -14,10 l -4,0 c 2.5,-5 2.5,-15 0,-20 z"/></g></g><g><g><g transform="translate(16,0)"><path d="M96,16 96,32" class="wire"/></g><g><path d="m96,16 16,0" class="wire"/></g><g><path d="m96,32 16,0" class="wire"/></g><g transform="translate(128,24)"><title><tspan>&amp;</tspan></title><path class="gate" d="m -16,-10 5,0 c 6,0 11,4 11,10 0,6 -5,10 -11,10 l -5,0 z"/></g></g><g><g><g transform="translate(16,0)"><path d="M64,16 64,16" class="wire"/></g><g><path d="m64,16 16,0" class="wire"/></g><g transform="translate(96,16)"><title><tspan>~</tspan></title><path class="gate" d="M -11,-6 -11,6 0,0 z m -5,6 5,0M 4,0 C 4,1.1 3.1,2 2,2 0.9,2 0,1.1 0,0 c 0,-1.1 0.9,-2 2,-2 1.1,0 2,0.9 2,2 z"/></g></g><g><g transform="translate(64,16)"><title><tspan>a</tspan></title><path d="M 2,0 a 2,2 0 1 1 -4,0 2,2 0 1 1 4,0 z"/><text x="-4" y="4" class="pinname"><tspan>a</tspan></text></g></g></g><g><g transform="translate(96,32)"><title><tspan>b</tspan></title><path d="M 2,0 a 2,2 0 1 1 -4,0 2,2 0 1 1 4,0 z"/><text x="-4" y="4" class="pinname"><tspan>b</tspan></text></g></g></g><g><g><g transform="translate(16,0)"><path d="M96,48 96,64" class="wire"/></g><g><path d="m96,48 16,0" class="wire"/></g><g><path d="m96,64 16,0" class="wire"/></g><g transform="translate(128,56)"><title><tspan>&amp;</tspan></title><path class="gate" d="m -16,-10 5,0 c 6,0 11,4 11,10 0,6 -5,10 -11,10 l -5,0 z"/></g></g><g><g><g transform="translate(16,0)"><path d="M64,48 64,48" class="wire"/></g><g><path d="m64,48 16,0" class="wire"/></g><g transform="translate(96,48)"><title><tspan>~</tspan></title><path class="gate" d="M -11,-6 -11,6 0,0 z m -5,6 5,0M 4,0 C 4,1.1 3.1,2 2,2 0.9,2 0,1.1 0,0 c 0,-1.1 0.9,-2 2,-2 1.1,0 2,0.9 2,2 z"/></g></g><g><g transform="translate(64,48)"><title><tspan>b</tspan></title><path d="M 2,0 a 2,2 0 1 1 -4,0 2,2 0 1 1 4,0 z"/><text x="-4" y="4" class="pinname"><tspan>b</tspan></text></g></g></g><g><g transform="translate(96,64)"><title><tspan>a</tspan></title><path d="M 2,0 a 2,2 0 1 1 -4,0 2,2 0 1 1 4,0 z"/><text x="-4" y="4" class="pinname"><tspan>a</tspan></text></g></g></g></g></g></g></g></svg>